<svg width="396.48" height="53.974" viewBox="0 0 396.48 53.974" xmlns="http://www.w3.org/2000/svg"><g id="svgGroup" stroke-linecap="round" fill-rule="evenodd" font-size="9pt" stroke="#ffffff" stroke-width=".25mm" fill="#ffffff" style="stroke:#ffffff;stroke-width:.25mm;fill:#ffffff"><path d="M 264.04 6.65 L 263.06 12.04 A 152.45 152.45 0 0 0 258.643 11.207 A 179.618 179.618 0 0 0 256.515 10.85 Q 253.538 10.369 249.759 10.198 A 86.99 86.99 0 0 0 248.5 10.15 Q 243.88 10.22 240.52 11.55 A 14.733 14.733 0 0 0 236.962 13.537 A 12.822 12.822 0 0 0 235.025 15.365 A 15.806 15.806 0 0 0 232.272 20.027 A 18.737 18.737 0 0 0 231.84 21.28 A 23.854 23.854 0 0 0 230.926 25.962 A 29.72 29.72 0 0 0 230.79 28.84 A 34.734 34.734 0 0 0 231.016 32.908 Q 231.345 35.696 232.155 37.94 Q 233.52 41.72 235.935 44.135 Q 238.35 46.55 241.57 47.67 A 20.474 20.474 0 0 0 247.239 48.757 A 23.779 23.779 0 0 0 248.5 48.79 Q 250.88 48.79 252.805 48.51 Q 254.46 48.269 255.752 47.951 A 20.583 20.583 0 0 0 256.165 47.845 A 23.59 23.59 0 0 0 257.783 47.351 A 19.006 19.006 0 0 0 258.79 46.97 L 258.79 34.16 L 250.04 34.16 L 250.04 28.91 L 264.74 28.91 L 264.74 49.84 A 17.223 17.223 0 0 1 262.74 50.957 Q 261.648 51.481 260.328 51.967 A 40.904 40.904 0 0 1 257.985 52.745 Q 253.901 53.974 249.029 53.974 A 39.146 39.146 0 0 1 248.5 53.97 Q 243.74 53.97 239.365 52.85 Q 234.99 51.73 231.595 48.895 A 17.634 17.634 0 0 1 227.964 44.673 A 23.69 23.69 0 0 1 226.17 41.16 A 23.905 23.905 0 0 1 224.856 36.751 Q 224.409 34.542 224.241 31.977 A 49.197 49.197 0 0 1 224.14 28.77 A 33.235 33.235 0 0 1 224.502 23.743 Q 224.938 20.895 225.9 18.484 A 20.538 20.538 0 0 1 226.03 18.165 Q 227.92 13.65 231.175 10.675 Q 234.43 7.7 238.735 6.195 A 27.394 27.394 0 0 1 247.56 4.692 A 30.845 30.845 0 0 1 247.87 4.69 A 57.842 57.842 0 0 1 253.222 4.931 A 52.69 52.69 0 0 1 253.96 5.005 Q 256.9 5.32 259.35 5.705 A 54.548 54.548 0 0 1 263.406 6.496 A 49.028 49.028 0 0 1 264.04 6.65 Z M 36.33 6.86 L 35.07 12.04 A 45.621 45.621 0 0 0 32.327 11.259 A 52.271 52.271 0 0 0 31.36 11.025 A 41.754 41.754 0 0 0 29.033 10.557 A 53.207 53.207 0 0 0 27.055 10.255 A 35.836 35.836 0 0 0 23.4 9.96 A 41.114 41.114 0 0 0 22.12 9.94 A 16.14 16.14 0 0 0 18.744 10.276 A 11.754 11.754 0 0 0 14.98 11.76 Q 12.04 13.58 10.185 16.415 Q 8.33 19.25 7.49 22.75 Q 6.65 26.25 6.65 29.68 A 26.601 26.601 0 0 0 7.017 34.186 A 21.269 21.269 0 0 0 7.875 37.555 A 20.114 20.114 0 0 0 9.541 41.2 A 16.494 16.494 0 0 0 11.235 43.575 Q 13.37 46.06 16.205 47.39 Q 19.04 48.72 22.19 48.72 A 48.347 48.347 0 0 0 25.008 48.641 A 37.224 37.224 0 0 0 27.58 48.405 Q 30.03 48.09 31.78 47.74 Q 33.81 47.32 35.42 46.76 L 36.61 51.73 A 34.649 34.649 0 0 1 34.351 52.394 A 44.69 44.69 0 0 1 32.41 52.85 Q 30.45 53.27 27.86 53.62 Q 25.27 53.97 22.19 53.97 Q 16.66 53.97 12.495 52.15 A 19.221 19.221 0 0 1 6.89 48.476 A 18.095 18.095 0 0 1 5.565 47.075 A 21.371 21.371 0 0 1 1.922 40.868 A 25.181 25.181 0 0 1 1.4 39.375 A 30.229 30.229 0 0 1 0.166 33.164 A 37.234 37.234 0 0 1 0 29.61 Q 0 23.52 1.68 18.865 A 24.916 24.916 0 0 1 3.821 14.344 A 20.195 20.195 0 0 1 6.3 11.06 Q 9.24 7.91 13.3 6.3 A 23.09 23.09 0 0 1 20.105 4.768 A 27.549 27.549 0 0 1 22.19 4.69 Q 24.036 4.69 25.731 4.814 A 39.696 39.696 0 0 1 27.685 5.005 A 51.616 51.616 0 0 1 30.427 5.415 A 40.487 40.487 0 0 1 32.375 5.81 A 61.136 61.136 0 0 1 34.86 6.433 A 49.504 49.504 0 0 1 36.33 6.86 Z M 295.54 53.62 L 295.12 49.21 L 294.98 49.21 A 17.765 17.765 0 0 1 294.63 49.475 Q 294.233 49.768 293.687 50.145 A 66.44 66.44 0 0 1 293.16 50.505 Q 291.97 51.31 290.43 52.08 A 20.262 20.262 0 0 1 288.178 53.035 A 24.246 24.246 0 0 1 287.035 53.41 Q 285.18 53.97 283.29 53.97 A 16.842 16.842 0 0 1 281.331 53.862 Q 280.351 53.747 279.514 53.51 A 9.025 9.025 0 0 1 278.88 53.305 Q 277.06 52.64 275.94 51.1 Q 274.82 49.56 274.33 47.04 A 23.296 23.296 0 0 1 274.032 44.973 Q 273.918 43.862 273.872 42.578 A 51.227 51.227 0 0 1 273.84 40.74 L 273.84 17.85 L 279.44 17.85 L 279.44 39.9 A 108.505 108.505 0 0 0 279.457 41.836 Q 279.474 42.814 279.51 43.68 A 12.837 12.837 0 0 0 279.625 44.964 Q 279.717 45.61 279.876 46.162 A 6.896 6.896 0 0 0 280 46.55 A 4.012 4.012 0 0 0 280.595 47.666 A 3.514 3.514 0 0 0 281.365 48.405 A 3.203 3.203 0 0 0 282.266 48.836 Q 282.691 48.967 283.205 49.025 A 7.687 7.687 0 0 0 284.06 49.07 A 9.556 9.556 0 0 0 286.494 48.742 A 12.079 12.079 0 0 0 287.84 48.3 Q 289.8 47.53 291.41 46.55 Q 293.3 45.43 295.12 44.03 L 295.12 17.85 L 300.72 17.85 L 300.72 48.51 Q 300.79 51.03 301.07 53.06 L 295.54 53.62 Z M 391.09 53.62 L 390.53 50.26 A 26.312 26.312 0 0 1 388.752 51.398 A 20.752 20.752 0 0 1 387.415 52.115 Q 385.91 52.85 384.125 53.41 A 12.235 12.235 0 0 1 381.841 53.902 A 10.471 10.471 0 0 1 380.66 53.97 A 14.917 14.917 0 0 1 376.038 53.288 A 11.913 11.913 0 0 1 370.335 49.315 Q 366.59 44.66 366.59 35.7 A 27.444 27.444 0 0 1 366.831 31.956 Q 367.108 29.952 367.701 28.271 A 14.553 14.553 0 0 1 368.305 26.81 A 18.919 18.919 0 0 1 370.222 23.621 A 14.652 14.652 0 0 1 372.61 21.105 Q 375.2 18.97 378.175 18.06 A 22.436 22.436 0 0 1 380.864 17.407 Q 382.309 17.154 383.628 17.15 A 13.966 13.966 0 0 1 383.67 17.15 A 20.37 20.37 0 0 1 385.469 17.233 A 24.151 24.151 0 0 1 386.33 17.325 Q 387.73 17.5 390.46 18.2 L 390.46 0.63 L 396.06 0 L 396.06 46.69 A 59.405 59.405 0 0 0 396.069 47.696 A 69.254 69.254 0 0 0 396.095 48.755 Q 396.13 49.84 396.235 50.89 A 87.429 87.429 0 0 0 396.446 52.781 A 96.652 96.652 0 0 0 396.48 53.06 L 391.09 53.62 Z M 64.19 53.62 L 63.49 49.77 A 60.281 60.281 0 0 1 60.362 51.452 Q 58.805 52.228 57.365 52.815 A 15.865 15.865 0 0 1 51.955 53.956 A 18.333 18.333 0 0 1 51.24 53.97 A 15.662 15.662 0 0 1 48.181 53.689 Q 45.578 53.17 43.785 51.695 Q 41.55 49.856 41.122 46.073 A 16.936 16.936 0 0 1 41.02 44.17 A 8.978 8.978 0 0 1 41.392 41.541 A 7.667 7.667 0 0 1 42.42 39.41 A 11.535 11.535 0 0 1 45.608 36.322 A 13.461 13.461 0 0 1 46.095 36.015 A 18.988 18.988 0 0 1 49.505 34.419 A 22.716 22.716 0 0 1 51.24 33.88 Q 54.11 33.11 57.12 32.9 A 33.3 33.3 0 0 1 57.798 32.832 Q 58.735 32.748 59.991 32.678 A 104.12 104.12 0 0 1 60.41 32.655 A 576.354 576.354 0 0 0 61.368 32.605 Q 62.298 32.555 62.985 32.515 A 151.178 151.178 0 0 0 63.56 32.48 A 73.443 73.443 0 0 0 63.53 30.298 Q 63.499 29.274 63.438 28.363 A 43.032 43.032 0 0 0 63.42 28.105 A 10.459 10.459 0 0 0 63.191 26.528 Q 62.974 25.583 62.58 24.815 Q 61.88 23.45 60.515 22.75 A 5.263 5.263 0 0 0 59.44 22.351 Q 58.357 22.069 56.838 22.051 A 17.628 17.628 0 0 0 56.63 22.05 A 30.841 30.841 0 0 0 53.185 22.238 A 28.135 28.135 0 0 0 52.71 22.295 A 70.033 70.033 0 0 0 51.031 22.532 Q 50.244 22.654 49.547 22.783 A 40.722 40.722 0 0 0 49.35 22.82 A 45.469 45.469 0 0 0 47.47 23.236 A 36.029 36.029 0 0 0 46.13 23.59 L 45.01 18.76 A 55.342 55.342 0 0 1 47.307 18.262 A 67.693 67.693 0 0 1 48.79 17.99 A 36.143 36.143 0 0 1 50.429 17.704 Q 51.551 17.533 52.85 17.395 A 43.77 43.77 0 0 1 55.874 17.184 A 53.611 53.611 0 0 1 57.82 17.15 Q 60.365 17.15 62.217 17.684 A 9.001 9.001 0 0 1 63.595 18.2 A 9.339 9.339 0 0 1 65.648 19.512 A 7.769 7.769 0 0 1 67.025 21.035 A 10.727 10.727 0 0 1 68.613 24.673 A 12.403 12.403 0 0 1 68.705 25.095 A 23.842 23.842 0 0 1 69.144 28.954 A 27.171 27.171 0 0 1 69.16 29.89 L 69.16 46.69 Q 69.16 47.67 69.195 48.755 Q 69.23 49.84 69.335 50.89 A 87.429 87.429 0 0 0 69.546 52.781 A 96.652 96.652 0 0 0 69.58 53.06 L 64.19 53.62 Z M 331.1 53.62 L 330.4 49.77 A 60.281 60.281 0 0 1 327.272 51.452 Q 325.715 52.228 324.275 52.815 A 15.865 15.865 0 0 1 318.865 53.956 A 18.333 18.333 0 0 1 318.15 53.97 A 15.662 15.662 0 0 1 315.091 53.689 Q 312.488 53.17 310.695 51.695 Q 308.46 49.856 308.032 46.073 A 16.936 16.936 0 0 1 307.93 44.17 A 8.978 8.978 0 0 1 308.302 41.541 A 7.667 7.667 0 0 1 309.33 39.41 A 11.535 11.535 0 0 1 312.518 36.322 A 13.461 13.461 0 0 1 313.005 36.015 A 18.988 18.988 0 0 1 316.415 34.419 A 22.716 22.716 0 0 1 318.15 33.88 Q 321.02 33.11 324.03 32.9 A 33.3 33.3 0 0 1 324.708 32.832 Q 325.645 32.748 326.901 32.678 A 104.12 104.12 0 0 1 327.32 32.655 A 576.354 576.354 0 0 0 328.278 32.605 Q 329.208 32.555 329.895 32.515 A 151.178 151.178 0 0 0 330.47 32.48 A 73.443 73.443 0 0 0 330.44 30.298 Q 330.409 29.274 330.348 28.363 A 43.032 43.032 0 0 0 330.33 28.105 A 10.459 10.459 0 0 0 330.101 26.528 Q 329.884 25.583 329.49 24.815 Q 328.79 23.45 327.425 22.75 A 5.263 5.263 0 0 0 326.35 22.351 Q 325.267 22.069 323.748 22.051 A 17.628 17.628 0 0 0 323.54 22.05 A 30.841 30.841 0 0 0 320.095 22.238 A 28.135 28.135 0 0 0 319.62 22.295 A 70.033 70.033 0 0 0 317.941 22.532 Q 317.154 22.654 316.457 22.783 A 40.722 40.722 0 0 0 316.26 22.82 A 45.469 45.469 0 0 0 314.38 23.236 A 36.029 36.029 0 0 0 313.04 23.59 L 311.92 18.76 A 55.342 55.342 0 0 1 314.217 18.262 A 67.693 67.693 0 0 1 315.7 17.99 A 36.143 36.143 0 0 1 317.339 17.704 Q 318.461 17.533 319.76 17.395 A 43.77 43.77 0 0 1 322.784 17.184 A 53.611 53.611 0 0 1 324.73 17.15 Q 327.275 17.15 329.127 17.684 A 9.001 9.001 0 0 1 330.505 18.2 A 9.339 9.339 0 0 1 332.558 19.512 A 7.769 7.769 0 0 1 333.935 21.035 A 10.727 10.727 0 0 1 335.523 24.673 A 12.403 12.403 0 0 1 335.615 25.095 A 23.842 23.842 0 0 1 336.054 28.954 A 27.171 27.171 0 0 1 336.07 29.89 L 336.07 46.69 Q 336.07 47.67 336.105 48.755 Q 336.14 49.84 336.245 50.89 A 87.429 87.429 0 0 0 336.456 52.781 A 96.652 96.652 0 0 0 336.49 53.06 L 331.1 53.62 Z M 199.15 47.53 L 200.2 52.22 Q 198.59 52.71 196.875 53.06 Q 195.16 53.41 193.095 53.69 A 31.541 31.541 0 0 1 189.417 53.964 A 35.257 35.257 0 0 1 188.79 53.97 A 22.06 22.06 0 0 1 184.408 53.548 A 19.102 19.102 0 0 1 182.28 52.99 Q 179.27 52.01 177.03 49.84 A 13.624 13.624 0 0 1 174.612 46.645 A 17.952 17.952 0 0 1 173.495 44.205 A 18.784 18.784 0 0 1 172.61 40.872 Q 172.328 39.265 172.24 37.423 A 36.113 36.113 0 0 1 172.2 35.7 A 27.885 27.885 0 0 1 172.475 31.689 A 20.202 20.202 0 0 1 173.46 27.685 A 18.415 18.415 0 0 1 175.121 24.23 A 15.011 15.011 0 0 1 176.925 21.875 Q 179.13 19.53 182.105 18.34 A 16.824 16.824 0 0 1 187.286 17.192 A 19.767 19.767 0 0 1 188.58 17.15 A 14.907 14.907 0 0 1 191.502 17.423 A 11.111 11.111 0 0 1 194.53 18.48 Q 197.05 19.81 198.695 22.085 A 15.158 15.158 0 0 1 200.626 25.753 A 18.369 18.369 0 0 1 201.145 27.405 Q 201.95 30.45 201.95 33.81 L 200.9 36.89 L 178.29 36.89 Q 178.29 39.06 178.85 41.23 Q 179.41 43.4 180.775 45.15 Q 182.14 46.9 184.345 47.985 Q 186.257 48.926 188.986 49.051 A 18.684 18.684 0 0 0 189.84 49.07 A 31.722 31.722 0 0 0 191.853 49.009 A 24.477 24.477 0 0 0 193.69 48.825 A 40.842 40.842 0 0 0 194.939 48.631 Q 195.617 48.515 196.212 48.385 A 22.19 22.19 0 0 0 196.735 48.265 A 22.145 22.145 0 0 0 198.433 47.782 A 18.83 18.83 0 0 0 199.15 47.53 Z M 79.03 53.06 L 79.03 0.63 L 84.63 0 L 84.63 53.06 L 79.03 53.06 Z M 94.43 26.705 A 14.461 14.461 0 0 0 93.812 28.23 Q 92.75 31.331 92.75 35.56 A 32.991 32.991 0 0 0 92.804 37.469 Q 92.918 39.43 93.273 41.113 A 16.354 16.354 0 0 0 94.395 44.59 A 18.952 18.952 0 0 0 95.933 47.334 A 13.896 13.896 0 0 0 98.525 50.225 A 16.827 16.827 0 0 0 98.681 50.353 A 14.736 14.736 0 0 0 103.95 53.13 Q 106.89 53.97 109.55 53.97 A 17.463 17.463 0 0 0 112.245 53.751 A 23.321 23.321 0 0 0 115.15 53.095 A 14.785 14.785 0 0 0 116.538 52.616 A 15.978 15.978 0 0 0 120.75 50.085 A 14.442 14.442 0 0 0 123.255 47.392 A 19.166 19.166 0 0 0 125.055 44.31 Q 126.127 42.035 126.529 39.022 A 29.408 29.408 0 0 0 126.77 35.14 A 30.709 30.709 0 0 0 126.718 33.316 Q 126.603 31.391 126.239 29.742 A 15.315 15.315 0 0 0 125.09 26.355 Q 123.41 22.89 120.89 20.825 A 16.702 16.702 0 0 0 120.732 20.697 A 14.59 14.59 0 0 0 115.395 17.955 A 24.9 24.9 0 0 0 112.706 17.377 A 18.352 18.352 0 0 0 109.9 17.15 A 17.637 17.637 0 0 0 107.469 17.324 A 22.215 22.215 0 0 0 104.265 18.025 Q 101.29 18.9 98.7 21.035 Q 96.11 23.17 94.43 26.705 Z M 134.96 53.06 L 134.96 23.52 Q 134.96 21.97 134.636 18.734 A 141.123 141.123 0 0 0 134.61 18.48 L 139.79 17.78 L 140.35 22.89 L 140.42 22.89 Q 141.68 21.28 142.87 20.09 A 17.258 17.258 0 0 1 144.873 18.364 A 15.533 15.533 0 0 1 145.355 18.025 Q 146.65 17.15 147.84 17.15 Q 149.45 17.08 152.32 17.5 L 151.06 22.89 Q 148.874 22.492 147.942 22.534 A 3.144 3.144 0 0 0 147.84 22.54 Q 146.65 22.54 145.32 23.66 Q 143.99 24.78 143.01 26.04 A 28.204 28.204 0 0 0 141.482 28.101 A 34.903 34.903 0 0 0 140.56 29.54 L 140.56 53.06 L 134.96 53.06 Z M 346.01 53.06 L 346.01 23.52 Q 346.01 21.97 345.686 18.734 A 141.123 141.123 0 0 0 345.66 18.48 L 350.84 17.78 L 351.4 22.89 L 351.47 22.89 Q 352.73 21.28 353.92 20.09 A 17.258 17.258 0 0 1 355.923 18.364 A 15.533 15.533 0 0 1 356.405 18.025 Q 357.7 17.15 358.89 17.15 Q 360.5 17.08 363.37 17.5 L 362.11 22.89 Q 359.924 22.492 358.992 22.534 A 3.144 3.144 0 0 0 358.89 22.54 Q 357.7 22.54 356.37 23.66 Q 355.04 24.78 354.06 26.04 A 28.204 28.204 0 0 0 352.532 28.101 A 34.903 34.903 0 0 0 351.61 29.54 L 351.61 53.06 L 346.01 53.06 Z M 158.48 53.06 L 158.48 17.78 L 164.08 17.15 L 164.08 53.06 L 158.48 53.06 Z M 98.7 35.63 A 24.096 24.096 0 0 0 98.969 39.356 Q 99.272 41.287 99.916 42.828 A 9.966 9.966 0 0 0 101.745 45.745 A 10.061 10.061 0 0 0 107.954 48.933 A 14.308 14.308 0 0 0 109.97 49.07 A 12.747 12.747 0 0 0 113.354 48.645 A 9.191 9.191 0 0 0 117.95 45.78 A 10.349 10.349 0 0 0 119.909 42.281 Q 120.436 40.741 120.658 38.852 A 25.219 25.219 0 0 0 120.82 35.91 Q 120.82 28.91 117.775 25.48 A 10.019 10.019 0 0 0 111.409 22.176 A 14.312 14.312 0 0 0 109.48 22.05 A 12.934 12.934 0 0 0 106.199 22.442 A 8.816 8.816 0 0 0 101.465 25.445 Q 99.444 27.927 98.9 32.222 A 27.197 27.197 0 0 0 98.7 35.63 Z M 390.46 45.36 L 390.46 23.1 A 55.397 55.397 0 0 0 389.27 22.783 Q 387.59 22.356 386.54 22.225 Q 385.14 22.05 383.67 22.05 Q 380.89 22.05 378.86 22.989 A 8.471 8.471 0 0 0 378.63 23.1 Q 376.53 24.15 375.165 26.005 A 12.156 12.156 0 0 0 373.385 29.534 A 14.147 14.147 0 0 0 373.17 30.275 A 19.714 19.714 0 0 0 372.57 34.241 A 22.801 22.801 0 0 0 372.54 35.42 Q 372.54 37.87 373.065 40.32 A 16.15 16.15 0 0 0 374.011 43.325 A 13.897 13.897 0 0 0 374.71 44.73 A 10.93 10.93 0 0 0 376.125 46.691 A 9.142 9.142 0 0 0 377.44 47.88 A 6.064 6.064 0 0 0 380.456 49.026 A 7.806 7.806 0 0 0 381.29 49.07 A 9.337 9.337 0 0 0 383.508 48.793 A 11.353 11.353 0 0 0 384.475 48.51 A 22.147 22.147 0 0 0 386.759 47.593 A 19.259 19.259 0 0 0 387.52 47.215 A 21.099 21.099 0 0 0 389.047 46.325 A 27.888 27.888 0 0 0 390.46 45.36 Z M 63.56 44.87 L 63.56 36.89 Q 62.16 36.96 60.9 37.03 Q 59.64 37.1 58.415 37.205 A 46.694 46.694 0 0 0 57.269 37.317 Q 56.725 37.377 56.241 37.446 A 28.492 28.492 0 0 0 56.21 37.45 A 31.566 31.566 0 0 0 53.74 37.851 Q 51.346 38.347 49.88 39.141 A 6.548 6.548 0 0 0 49.07 39.655 A 5.118 5.118 0 0 0 47.012 43.37 A 7.486 7.486 0 0 0 46.97 44.17 A 6.329 6.329 0 0 0 47.125 45.614 Q 47.452 47.012 48.475 47.845 A 5.256 5.256 0 0 0 50.596 48.868 Q 51.369 49.054 52.276 49.069 A 9.622 9.622 0 0 0 52.43 49.07 A 16.747 16.747 0 0 0 55.607 48.781 A 13.125 13.125 0 0 0 58.415 47.915 Q 61.04 46.76 63.56 44.87 Z M 330.47 44.87 L 330.47 36.89 Q 329.07 36.96 327.81 37.03 Q 326.55 37.1 325.325 37.205 A 46.694 46.694 0 0 0 324.179 37.317 Q 323.635 37.377 323.151 37.446 A 28.492 28.492 0 0 0 323.12 37.45 A 31.566 31.566 0 0 0 320.65 37.851 Q 318.256 38.347 316.79 39.141 A 6.548 6.548 0 0 0 315.98 39.655 A 5.118 5.118 0 0 0 313.922 43.37 A 7.486 7.486 0 0 0 313.88 44.17 A 6.329 6.329 0 0 0 314.035 45.614 Q 314.362 47.012 315.385 47.845 A 5.256 5.256 0 0 0 317.506 48.868 Q 318.279 49.054 319.186 49.069 A 9.622 9.622 0 0 0 319.34 49.07 A 16.747 16.747 0 0 0 322.517 48.781 A 13.125 13.125 0 0 0 325.325 47.915 Q 327.95 46.76 330.47 44.87 Z M 178.5 32.41 L 196.14 32.41 Q 196.14 31.92 195.93 30.24 A 12.068 12.068 0 0 0 195.466 28.141 A 15.308 15.308 0 0 0 194.95 26.74 Q 194.18 24.92 192.57 23.485 A 5.494 5.494 0 0 0 190.077 22.235 A 8.054 8.054 0 0 0 188.3 22.05 A 11.594 11.594 0 0 0 186.243 22.222 Q 185.062 22.435 184.107 22.912 A 6.528 6.528 0 0 0 183.47 23.275 A 11.011 11.011 0 0 0 181.497 24.89 A 9.393 9.393 0 0 0 180.46 26.18 A 11.449 11.449 0 0 0 179.355 28.253 A 9.678 9.678 0 0 0 178.92 29.61 A 21.42 21.42 0 0 0 178.699 30.635 Q 178.5 31.688 178.5 32.41 Z M 157.837 6.302 A 3.929 3.929 0 0 0 157.57 7.77 A 4.744 4.744 0 0 0 157.571 7.82 A 3.65 3.65 0 0 0 158.655 10.465 A 3.623 3.623 0 0 0 159.882 11.283 A 3.929 3.929 0 0 0 161.35 11.55 A 5.127 5.127 0 0 0 161.455 11.549 A 3.965 3.965 0 0 0 164.185 10.465 A 3.653 3.653 0 0 0 164.997 9.369 A 3.676 3.676 0 0 0 165.34 7.77 A 4.405 4.405 0 0 0 165.339 7.645 A 3.533 3.533 0 0 0 164.185 5.075 A 3.906 3.906 0 0 0 162.899 4.261 A 4.298 4.298 0 0 0 161.35 3.99 A 4.744 4.744 0 0 0 161.3 3.99 A 3.65 3.65 0 0 0 158.655 5.075 A 3.623 3.623 0 0 0 157.837 6.302 Z" vector-effect="non-scaling-stroke"/></g></svg>