<svg width="241.29" height="52.711" viewBox="0 0 241.29 52.711" xmlns="http://www.w3.org/2000/svg"><g id="svgGroup" stroke-linecap="round" fill-rule="evenodd" font-size="9pt" stroke="#ffffff" stroke-width=".25mm" fill="#ffffff" style="stroke:#ffffff;stroke-width:.25mm;fill:#ffffff"><path d="M 5.67 52.01 L 0 52.01 L 0 1.4 L 30.73 1.4 L 30.73 6.265 L 5.67 6.265 L 5.67 24.08 L 28.385 24.08 L 28.385 28.945 L 5.67 28.945 L 5.67 52.01 Z M 75.145 41.72 L 80.22 41.72 A 8.618 8.618 0 0 0 81.003 43.951 A 7.393 7.393 0 0 0 81.987 45.395 A 8.23 8.23 0 0 0 84.82 47.479 A 9.79 9.79 0 0 0 85.312 47.688 Q 87.325 48.475 89.845 48.475 Q 92.708 48.475 94.749 47.652 A 8.216 8.216 0 0 0 96.058 46.988 A 4.815 4.815 0 0 0 98.337 43.519 A 6.985 6.985 0 0 0 98.42 42.42 A 6.134 6.134 0 0 0 98.25 40.937 A 4.335 4.335 0 0 0 97.212 38.99 Q 96.26 37.968 94.512 37.382 A 11.674 11.674 0 0 0 93.52 37.1 L 85.75 35.105 Q 82.151 34.19 79.783 32.493 A 11.941 11.941 0 0 1 78.942 31.833 A 7.141 7.141 0 0 1 76.544 27.467 A 10.437 10.437 0 0 1 76.405 25.725 A 11.068 11.068 0 0 1 76.837 22.58 A 9.464 9.464 0 0 1 77.893 20.23 Q 79.38 17.85 82.355 16.485 A 13.717 13.717 0 0 1 85.246 15.552 Q 86.651 15.255 88.282 15.162 A 26.909 26.909 0 0 1 89.81 15.12 A 20.526 20.526 0 0 1 93.684 15.464 Q 96.772 16.058 98.998 17.675 A 8.67 8.67 0 0 1 102.453 23.205 A 12.96 12.96 0 0 1 102.69 25.305 L 97.755 25.305 A 6.999 6.999 0 0 0 97.036 22.928 A 6.246 6.246 0 0 0 95.358 20.913 A 6.999 6.999 0 0 0 92.894 19.679 Q 91.881 19.39 90.674 19.313 A 14.145 14.145 0 0 0 89.775 19.285 A 14.735 14.735 0 0 0 87.31 19.479 Q 85.923 19.715 84.796 20.236 A 7.928 7.928 0 0 0 83.79 20.79 A 4.91 4.91 0 0 0 81.551 24.388 A 7.518 7.518 0 0 0 81.48 25.445 A 4.421 4.421 0 0 0 81.723 26.944 A 3.74 3.74 0 0 0 83.073 28.718 A 8.633 8.633 0 0 0 84.4 29.508 Q 85.747 30.167 87.675 30.66 L 95.305 32.655 A 17.018 17.018 0 0 1 97.103 33.233 Q 98.318 33.704 99.243 34.318 A 10.878 10.878 0 0 1 100.642 35.411 A 8.408 8.408 0 0 1 101.727 36.628 Q 102.655 37.905 103.04 39.34 A 11.299 11.299 0 0 1 103.38 41.178 A 9.608 9.608 0 0 1 103.425 42.105 A 11.422 11.422 0 0 1 103.063 45.042 A 9.198 9.198 0 0 1 101.868 47.74 Q 100.31 50.12 97.283 51.415 A 14.989 14.989 0 0 1 94.162 52.342 Q 92.213 52.71 89.88 52.71 A 21.264 21.264 0 0 1 85.447 52.263 A 18.055 18.055 0 0 1 82.932 51.537 A 12.608 12.608 0 0 1 78.801 49.07 A 12.033 12.033 0 0 1 77.7 47.932 A 10.592 10.592 0 0 1 75.701 44.263 A 14.382 14.382 0 0 1 75.145 41.72 Z M 176.575 52.01 L 171.115 52.01 L 171.115 15.82 L 176.365 15.82 L 176.365 21.105 A 10.253 10.253 0 0 1 177.917 19.077 A 12.681 12.681 0 0 1 178.868 18.2 Q 180.46 16.87 182.753 16.065 A 14.021 14.021 0 0 1 185.678 15.393 A 18.162 18.162 0 0 1 187.915 15.26 A 15.377 15.377 0 0 1 192.148 15.827 A 13.631 13.631 0 0 1 194.302 16.643 A 10.557 10.557 0 0 1 198.851 20.84 A 12.695 12.695 0 0 1 198.905 20.93 Q 200.62 23.835 200.62 28.385 L 200.62 52.01 L 195.16 52.01 L 195.16 28.875 Q 195.16 25.879 194.174 23.899 A 6.466 6.466 0 0 0 192.815 22.05 Q 190.47 19.845 186.62 19.845 A 14.588 14.588 0 0 0 182.562 20.4 A 13.511 13.511 0 0 0 181.685 20.685 Q 179.375 21.525 177.975 23.24 A 6.128 6.128 0 0 0 176.686 26.157 A 8.371 8.371 0 0 0 176.575 27.545 L 176.575 52.01 Z M 54.74 30.275 L 61.705 30.065 L 61.705 27.055 A 9.499 9.499 0 0 0 61.405 24.603 A 6.937 6.937 0 0 0 59.57 21.403 A 6.468 6.468 0 0 0 57.127 19.916 Q 55.439 19.319 53.1 19.319 A 18.567 18.567 0 0 0 52.955 19.32 A 12.188 12.188 0 0 0 49.932 19.68 A 9.724 9.724 0 0 0 47.127 20.877 A 6.587 6.587 0 0 0 44.512 24.084 A 9.667 9.667 0 0 0 43.995 25.865 L 39.025 25.865 A 12.584 12.584 0 0 1 39.563 22.856 A 9.951 9.951 0 0 1 40.933 20.073 A 10.048 10.048 0 0 1 44.105 17.205 A 12.963 12.963 0 0 1 45.745 16.397 Q 48.613 15.221 52.519 15.128 A 28.515 28.515 0 0 1 53.2 15.12 Q 56.789 15.12 59.46 15.949 A 13.515 13.515 0 0 1 60.778 16.433 A 10.521 10.521 0 0 1 63.612 18.193 A 9.192 9.192 0 0 1 65.415 20.353 Q 66.923 22.849 66.987 26.485 A 18.442 18.442 0 0 1 66.99 26.81 L 66.99 52.01 L 62.3 52.01 L 61.915 45.045 Q 60.067 48.712 57.368 50.474 A 9.877 9.877 0 0 1 56.402 51.03 Q 53.06 52.71 49.14 52.71 A 17.093 17.093 0 0 1 46.014 52.437 A 12.905 12.905 0 0 1 42.927 51.468 A 10.121 10.121 0 0 1 40.053 49.505 A 9.269 9.269 0 0 1 38.762 47.915 A 9.198 9.198 0 0 1 37.451 44.476 A 12.36 12.36 0 0 1 37.275 42.35 A 13.832 13.832 0 0 1 37.709 38.774 A 9.249 9.249 0 0 1 41.405 33.425 A 13.267 13.267 0 0 1 44.662 31.805 Q 47.974 30.644 52.943 30.351 A 55.877 55.877 0 0 1 54.74 30.275 Z M 148.26 30.275 L 155.225 30.065 L 155.225 27.055 A 9.499 9.499 0 0 0 154.925 24.603 A 6.937 6.937 0 0 0 153.09 21.403 A 6.468 6.468 0 0 0 150.647 19.916 Q 148.959 19.319 146.62 19.319 A 18.567 18.567 0 0 0 146.475 19.32 A 12.188 12.188 0 0 0 143.452 19.68 A 9.724 9.724 0 0 0 140.647 20.877 A 6.587 6.587 0 0 0 138.032 24.084 A 9.667 9.667 0 0 0 137.515 25.865 L 132.545 25.865 A 12.584 12.584 0 0 1 133.083 22.856 A 9.951 9.951 0 0 1 134.453 20.073 A 10.048 10.048 0 0 1 137.625 17.205 A 12.963 12.963 0 0 1 139.265 16.397 Q 142.133 15.221 146.039 15.128 A 28.515 28.515 0 0 1 146.72 15.12 Q 150.309 15.12 152.98 15.949 A 13.515 13.515 0 0 1 154.298 16.433 A 10.521 10.521 0 0 1 157.132 18.193 A 9.192 9.192 0 0 1 158.935 20.353 Q 160.443 22.849 160.507 26.485 A 18.442 18.442 0 0 1 160.51 26.81 L 160.51 52.01 L 155.82 52.01 L 155.435 45.045 Q 153.587 48.712 150.888 50.474 A 9.877 9.877 0 0 1 149.922 51.03 Q 146.58 52.71 142.66 52.71 A 17.093 17.093 0 0 1 139.534 52.437 A 12.905 12.905 0 0 1 136.447 51.468 A 10.121 10.121 0 0 1 133.573 49.505 A 9.269 9.269 0 0 1 132.282 47.915 A 9.198 9.198 0 0 1 130.971 44.476 A 12.36 12.36 0 0 1 130.795 42.35 A 13.832 13.832 0 0 1 131.229 38.774 A 9.249 9.249 0 0 1 134.925 33.425 A 13.267 13.267 0 0 1 138.182 31.805 Q 141.494 30.644 146.463 30.351 A 55.877 55.877 0 0 1 148.26 30.275 Z M 241.29 32.935 L 241.29 35.175 L 214.935 35.175 A 21.272 21.272 0 0 0 214.934 35.38 Q 214.934 37.455 215.342 39.313 A 15.319 15.319 0 0 0 216.108 41.79 Q 217.315 44.765 219.8 46.55 Q 222.285 48.335 226.065 48.335 Q 229.775 48.335 232.435 46.603 A 7.438 7.438 0 0 0 235.739 41.784 A 9.34 9.34 0 0 0 235.76 41.685 L 241.01 41.685 A 13.156 13.156 0 0 1 239.859 45.217 A 11.157 11.157 0 0 1 238.105 47.775 Q 235.865 50.225 232.733 51.468 Q 229.6 52.71 226.17 52.71 Q 221.2 52.71 217.403 50.523 A 15.021 15.021 0 0 1 211.622 44.493 A 18.053 18.053 0 0 1 211.47 44.205 Q 209.395 40.192 209.337 34.593 A 31.235 31.235 0 0 1 209.335 34.265 A 29.289 29.289 0 0 1 209.744 29.25 A 21.487 21.487 0 0 1 211.26 24.167 A 15.896 15.896 0 0 1 214.071 19.825 A 14.249 14.249 0 0 1 216.86 17.482 Q 220.535 15.12 225.715 15.12 A 19.334 19.334 0 0 1 229.664 15.503 A 13.844 13.844 0 0 1 234.185 17.273 A 13.563 13.563 0 0 1 239.16 22.773 A 16.57 16.57 0 0 1 239.47 23.415 A 19.327 19.327 0 0 1 240.877 28.014 Q 241.251 30.085 241.286 32.444 A 32.986 32.986 0 0 1 241.29 32.935 Z M 112.28 42.91 L 112.28 0 L 117.67 0 L 117.67 42.455 Q 117.67 45.266 118.67 46.655 A 3.47 3.47 0 0 0 118.79 46.812 Q 119.91 48.195 121.73 48.3 L 123.76 48.335 L 123.76 51.905 Q 122.99 52.15 122.185 52.273 A 11.948 11.948 0 0 1 121.514 52.356 Q 121.181 52.388 120.885 52.394 A 6.769 6.769 0 0 1 120.75 52.395 A 14.669 14.669 0 0 1 119.008 52.298 Q 118.127 52.192 117.388 51.972 A 7.005 7.005 0 0 1 116.498 51.642 A 6.818 6.818 0 0 1 114.958 50.696 A 5.688 5.688 0 0 1 113.907 49.56 Q 112.98 48.23 112.63 46.515 A 17.668 17.668 0 0 1 112.289 43.496 A 19.98 19.98 0 0 1 112.28 42.91 Z M 214.97 31.29 L 235.97 31.29 Q 235.97 27.93 234.85 25.235 Q 233.73 22.54 231.438 20.965 A 8.624 8.624 0 0 0 228.43 19.681 Q 227.249 19.413 225.879 19.392 A 15.289 15.289 0 0 0 225.645 19.39 A 12.551 12.551 0 0 0 222.972 19.66 Q 221.04 20.08 219.59 21.158 Q 217.21 22.925 216.073 25.655 A 14.071 14.071 0 0 0 214.969 31.117 A 14.383 14.383 0 0 0 214.97 31.29 Z M 61.705 40.18 L 61.705 33.74 L 55.895 33.845 A 43.8 43.8 0 0 0 52.937 33.984 Q 51.495 34.104 50.264 34.324 A 19.107 19.107 0 0 0 48.37 34.755 A 11.872 11.872 0 0 0 46.531 35.438 Q 44.949 36.191 44.03 37.328 A 6.069 6.069 0 0 0 42.861 39.761 Q 42.645 40.659 42.631 41.71 A 11.03 11.03 0 0 0 42.63 41.86 Q 42.63 45.045 44.87 46.83 A 7.926 7.926 0 0 0 48.091 48.342 Q 49.246 48.606 50.593 48.615 A 14.175 14.175 0 0 0 50.68 48.615 A 11.291 11.291 0 0 0 54.014 48.098 A 13.031 13.031 0 0 0 54.565 47.915 Q 56.525 47.215 58.135 45.99 A 11.836 11.836 0 0 0 59.825 44.437 A 9.93 9.93 0 0 0 60.725 43.26 A 6.316 6.316 0 0 0 61.444 41.786 A 5.117 5.117 0 0 0 61.705 40.18 Z M 155.225 40.18 L 155.225 33.74 L 149.415 33.845 A 43.8 43.8 0 0 0 146.457 33.984 Q 145.015 34.104 143.784 34.324 A 19.107 19.107 0 0 0 141.89 34.755 A 11.872 11.872 0 0 0 140.051 35.438 Q 138.469 36.191 137.55 37.328 A 6.069 6.069 0 0 0 136.381 39.761 Q 136.165 40.659 136.151 41.71 A 11.03 11.03 0 0 0 136.15 41.86 Q 136.15 45.045 138.39 46.83 A 7.926 7.926 0 0 0 141.611 48.342 Q 142.766 48.606 144.113 48.615 A 14.175 14.175 0 0 0 144.2 48.615 A 11.291 11.291 0 0 0 147.534 48.098 A 13.031 13.031 0 0 0 148.085 47.915 Q 150.045 47.215 151.655 45.99 A 11.836 11.836 0 0 0 153.345 44.437 A 9.93 9.93 0 0 0 154.245 43.26 A 6.316 6.316 0 0 0 154.964 41.786 A 5.117 5.117 0 0 0 155.225 40.18 Z" vector-effect="non-scaling-stroke"/></g></svg>