<svg width="353.384" height="51.135" viewBox="0 0 353.384 51.135" xmlns="http://www.w3.org/2000/svg"><g id="svgGroup" stroke-linecap="round" fill-rule="evenodd" font-size="9pt" stroke="#ffffff" stroke-width=".25mm" fill="#ffffff" style="stroke:#ffffff;stroke-width:.25mm;fill:#ffffff"><path d="M 185.391 15.074 L 178.794 15.074 A 11.4 11.4 0 0 0 178.407 12.021 A 8.294 8.294 0 0 0 175.923 7.982 A 9.416 9.416 0 0 0 172.271 5.987 Q 170.834 5.557 169.108 5.442 A 19.463 19.463 0 0 0 167.822 5.401 Q 164.395 5.401 162.034 6.466 A 8.564 8.564 0 0 0 160.251 7.537 A 6.942 6.942 0 0 0 157.569 12.629 A 9.856 9.856 0 0 0 157.534 13.468 A 6.265 6.265 0 0 0 159.617 18.175 A 8.822 8.822 0 0 0 160.115 18.612 A 12.149 12.149 0 0 0 161.966 19.828 Q 163.965 20.919 167.045 21.902 A 55.224 55.224 0 0 0 168.899 22.457 Q 172.953 23.596 175.854 24.889 A 25.643 25.643 0 0 1 178.606 26.302 A 18.212 18.212 0 0 1 181.24 28.2 Q 182.718 29.494 183.669 30.993 A 11.274 11.274 0 0 1 183.801 31.207 A 11.654 11.654 0 0 1 185.328 35.529 A 15.151 15.151 0 0 1 185.493 37.803 A 12.489 12.489 0 0 1 184.541 42.753 Q 183.374 45.488 180.776 47.493 A 16.477 16.477 0 0 1 174.918 50.32 Q 172.557 50.956 169.763 51.095 A 32.187 32.187 0 0 1 168.164 51.134 A 23.514 23.514 0 0 1 159.292 49.463 A 22.683 22.683 0 0 1 158.594 49.168 A 18.533 18.533 0 0 1 154.875 47.007 A 14.572 14.572 0 0 1 151.741 43.785 A 13.137 13.137 0 0 1 149.331 36.026 L 155.928 36.026 A 9.807 9.807 0 0 0 156.467 39.35 A 8.35 8.35 0 0 0 159.26 43.153 A 11.579 11.579 0 0 0 163.433 45.193 Q 165.089 45.642 167.045 45.74 A 22.326 22.326 0 0 0 168.164 45.767 A 20.438 20.438 0 0 0 171.174 45.56 Q 172.699 45.333 173.938 44.855 A 8.779 8.779 0 0 0 176.128 43.648 A 6.757 6.757 0 0 0 178.853 38.762 A 8.956 8.956 0 0 0 178.896 37.872 A 8.352 8.352 0 0 0 178.565 35.457 A 6.343 6.343 0 0 0 176.333 32.215 A 12.129 12.129 0 0 0 174.59 31.11 Q 171.902 29.675 167.036 28.267 Q 159.115 25.991 155.241 22.736 A 14.564 14.564 0 0 1 154.749 22.303 A 11.667 11.667 0 0 1 151.613 17.729 A 11.933 11.933 0 0 1 150.903 13.57 A 11.895 11.895 0 0 1 154.763 4.585 A 15.375 15.375 0 0 1 155.603 3.846 A 16.493 16.493 0 0 1 162.529 0.553 A 24.011 24.011 0 0 1 167.822 0.001 A 22.656 22.656 0 0 1 172.956 0.56 A 18.447 18.447 0 0 1 176.965 1.983 A 15.949 15.949 0 0 1 181.096 4.867 A 14.266 14.266 0 0 1 183.186 7.452 A 13.984 13.984 0 0 1 185.391 15.074 Z M 30.283 50.45 L 12.646 27.31 L 6.563 33.634 L 6.563 50.45 L 0 50.45 L 0 0.684 L 6.563 0.684 L 6.563 25.294 L 28.677 0.684 L 36.606 0.684 L 17.021 22.662 L 38.145 50.45 L 30.283 50.45 Z M 138.77 50.45 L 121.133 27.31 L 115.049 33.634 L 115.049 50.45 L 108.486 50.45 L 108.486 0.684 L 115.049 0.684 L 115.049 25.294 L 137.163 0.684 L 145.093 0.684 L 125.508 22.662 L 146.631 50.45 L 138.77 50.45 Z M 92.935 34.659 L 99.531 34.659 A 23.462 23.462 0 0 1 98.279 40.073 A 16.326 16.326 0 0 1 93.704 46.844 A 16.775 16.775 0 0 1 86.365 50.518 Q 83.828 51.114 80.856 51.133 A 30.648 30.648 0 0 1 80.664 51.134 A 19.859 19.859 0 0 1 73.905 50.029 A 17.064 17.064 0 0 1 66.531 44.81 Q 61.496 38.821 61.231 28.997 A 40.925 40.925 0 0 1 61.216 27.891 L 61.216 23.106 A 33.063 33.063 0 0 1 61.76 16.969 A 25.112 25.112 0 0 1 63.694 10.904 A 19.749 19.749 0 0 1 67.236 5.65 A 17.576 17.576 0 0 1 70.718 2.821 Q 75.264 0.001 81.245 0.001 A 23.037 23.037 0 0 1 86.737 0.62 A 16.065 16.065 0 0 1 93.96 4.427 Q 98.745 8.853 99.531 16.68 L 92.935 16.68 A 23.645 23.645 0 0 0 92.251 13.438 Q 91.233 9.942 89.226 8.067 Q 86.616 5.629 82.105 5.421 A 18.635 18.635 0 0 0 81.245 5.401 A 13.634 13.634 0 0 0 76.746 6.11 A 11.377 11.377 0 0 0 71.384 10.05 A 15.468 15.468 0 0 0 68.943 14.869 Q 67.813 18.451 67.813 23.277 L 67.813 28.096 A 31.457 31.457 0 0 0 68.212 33.274 Q 68.677 36.058 69.684 38.311 A 15.696 15.696 0 0 0 71.196 40.982 A 10.735 10.735 0 0 0 78.962 45.667 A 14.112 14.112 0 0 0 80.664 45.767 A 19.419 19.419 0 0 0 83.833 45.525 Q 87.046 44.993 89.055 43.289 A 8.77 8.77 0 0 0 91.038 40.793 Q 92.31 38.483 92.897 34.892 A 30.458 30.458 0 0 0 92.935 34.659 Z M 307.686 50.45 L 296.885 30.318 L 285.195 30.318 L 285.195 50.45 L 278.599 50.45 L 278.599 0.684 L 295.073 0.684 A 29.625 29.625 0 0 1 300.062 1.077 Q 302.725 1.533 304.853 2.518 A 13.912 13.912 0 0 1 308.01 4.512 A 12.352 12.352 0 0 1 312.097 11.424 A 19.076 19.076 0 0 1 312.539 15.655 A 14.494 14.494 0 0 1 311.83 20.256 A 12.756 12.756 0 0 1 310.027 23.756 Q 307.515 27.208 303.037 28.917 L 314.727 50.04 L 314.727 50.45 L 307.686 50.45 Z M 228.286 0.684 L 228.286 6.085 L 212.29 6.085 L 212.29 50.45 L 205.762 50.45 L 205.762 6.085 L 189.8 6.085 L 189.8 0.684 L 228.286 0.684 Z M 353.384 0.684 L 353.384 6.085 L 337.388 6.085 L 337.388 50.45 L 330.859 50.45 L 330.859 6.085 L 314.897 6.085 L 314.897 0.684 L 353.384 0.684 Z M 265.2 50.45 L 260.449 37.462 L 239.6 37.462 L 234.917 50.45 L 228.149 50.45 L 247.153 0.684 L 252.896 0.684 L 271.934 50.45 L 265.2 50.45 Z M 50.928 0.684 L 50.928 50.45 L 44.365 50.45 L 44.365 0.684 L 50.928 0.684 Z M 285.195 6.085 L 285.195 24.952 L 295.278 24.952 A 15.294 15.294 0 0 0 298.517 24.629 Q 301.198 24.048 303.054 22.423 A 8.313 8.313 0 0 0 305.897 16.688 A 11.559 11.559 0 0 0 305.942 15.655 A 12.356 12.356 0 0 0 305.632 12.798 Q 305.097 10.547 303.642 9.017 A 7.778 7.778 0 0 0 303.191 8.58 Q 300.927 6.555 297.009 6.173 A 19.523 19.523 0 0 0 295.244 6.085 L 285.195 6.085 Z M 250.024 8.785 L 241.582 32.061 L 258.501 32.061 L 250.024 8.785 Z" vector-effect="non-scaling-stroke"/></g></svg>